<?xml version="1.0" encoding="utf-8"?>
<!-- Generator: Adobe Illustrator 27.5.0, SVG Export Plug-In . SVG Version: 6.00 Build 0)  -->
<svg version="1.1" id="Layer_1" xmlns="http://www.w3.org/2000/svg" xmlns:xlink="http://www.w3.org/1999/xlink" x="0px" y="0px"
	 viewBox="0 0 12.2 9" style="enable-background:new 0 0 12.2 9;" xml:space="preserve">
<style type="text/css">
	.st0{fill:#010101;}
</style>
<g>
	<path class="st0" d="M12.2,0.7c0,0.3-0.2,0.5-0.5,0.5h-11C0.2,1.2,0,1,0,0.7c0-0.2,0.1-0.4,0.4-0.5c0.2,0,0.8-0.1,1.8-0.1h9.4
		c0.2,0,0.3,0.1,0.4,0.2S12.2,0.5,12.2,0.7z"/>
</g>
<g>
	<path class="st0" d="M12.2,4.5C12.2,4.8,12,5,11.6,5h-11C0.2,5,0,4.8,0,4.5C0,4.2,0.1,4.1,0.4,4c0.2,0,0.8-0.1,1.8-0.1h9.4
		c0.2,0,0.3,0.1,0.4,0.2C12.1,4.2,12.2,4.3,12.2,4.5z"/>
</g>
<g>
	<path class="st0" d="M12.2,8.4c0,0.3-0.2,0.5-0.5,0.5h-11C0.2,8.9,0,8.7,0,8.4C0,8.2,0.1,8,0.4,7.9c0.2,0,0.8-0.1,1.8-0.1h9.4
		c0.2,0,0.3,0.1,0.4,0.2C12.1,8.1,12.2,8.3,12.2,8.4z"/>
</g>
</svg>
